<?xml version="1.0" encoding="utf-8"?>
<!-- Generator: Adobe Illustrator 21.0.0, SVG Export Plug-In . SVG Version: 6.00 Build 0)  -->
<svg version="1.1"
	 id="svg2" inkscape:version="0.48.2 r9819" sodipodi:docname="bitcoin-logo-noshadow.svg" xmlns:cc="http://creativecommons.org/ns#" xmlns:dc="http://purl.org/dc/elements/1.1/" xmlns:inkscape="http://www.inkscape.org/namespaces/inkscape" xmlns:rdf="http://www.w3.org/1999/02/22-rdf-syntax-ns#" xmlns:sodipodi="http://sodipodi.sourceforge.net/DTD/sodipodi-0.dtd" xmlns:svg="http://www.w3.org/2000/svg"
	 xmlns="http://www.w3.org/2000/svg" xmlns:xlink="http://www.w3.org/1999/xlink" x="0px" y="0px" viewBox="0 0 1024 1024"
	 style="enable-background:new 0 0 1024 1024;" xml:space="preserve">
<style type="text/css">
	.st0{fill:#209D3B;}
</style>
<g id="page">
	<g id="group">
		<path id="Fill-19" class="st0" d="M662.6,350.8c-15.7-19.4-37.1-33.7-64-42.7c-27-9-58.7-13.5-95.2-13.5
			c-28.4,0-55.4,22.8-60.3,50.9l-45,260.3h55.2l-4.9,28.2h-55.2l-3.6,20.7h55.1l-4.8,28.2h-55.2l-5.8,33.7c-0.9,5.5-0.9,10.1,0.1,14
			c1,3.8,3.8,6.9,8.4,9c4.6,2.2,11.2,3.9,19.9,4.9c8.6,1.1,20.5,1.6,35.4,1.6c72,0,128.3-18.9,168.8-56.6
			c40.6-37.8,66.4-88.9,77.6-153.5c7.4-42.7,8.7-79.4,4.1-110C688.6,395.3,678.4,370.2,662.6,350.8"/>
		<path id="Fill-21" class="st0" d="M811.3,512c-5.5,32.9-16.6,65.6-33,98c-16.4,32.4-38.4,61.5-65.9,87.5
			c-27.5,26-60.4,46.9-98.8,62.8c-38.4,15.9-82.1,23.9-131,23.9H313.5c-14.3,0-31,0.4-50.1,1.2c-19.1,0.8-37.3,1.8-54.5,2.9
			c-0.7-2.2-0.8-4.8-0.4-7.5c0.5-2.8,0.8-5,1.1-6.7c1-6.1,2.7-10.2,4.9-12.1c2.2-2,4.8-3.2,7.6-3.8c16.4-2.8,29.8-6.6,40.2-11.3
			c10.4-4.7,16.6-13,18.6-24.7l7.5-44.4h-49.1l4.8-28.7h49.1l3.6-21.1h-49.1l4.8-28.7h49.1l49.9-296.5c1.9-11.2-0.8-19.1-8-23.9
			c-7.2-4.7-20.1-8.8-38.8-12.1c-4.2-1.1-6.7-2.9-7.3-5.4c-0.7-2.5-0.7-6,0.1-10.5c0.3-1.7,0.7-3.9,1.1-6.7c0.5-2.8,1.5-5.6,3.1-8.4
			c11.4,1.1,21.6,1.8,30.6,2.1c8.9,0.3,17.1,0.7,24.6,1.2c8.3,0.6,16.7,0.8,25.1,0.8h22.1h167.4c46.7,0,86.6,7.3,119.6,21.8
			c33,14.5,59.4,34,79.2,58.6c19.8,24.6,33.1,53.3,39.9,86.2C817.3,439.5,817.6,474.6,811.3,512 M512,60.4
			C262.6,60.4,60.4,262.6,60.4,512S262.6,963.6,512,963.6c249.4,0,451.5-202.2,451.5-451.6S761.4,60.4,512,60.4"/>
	</g>
</g>
</svg>
